# xmcd
#
# Track frame offsets:
#	150
#	10493
#	22963
#	33536
#	44553
#	56863
#	70023
#	81985
#	92672
#	102336
#	117011
#	128836
#	138763
#	152700
#	164803
#	177952
#	189198
#	200396
#	215383
#	225504
#	237087
#	249908
#	260620
#	271431
#	283877
#	303555
#	317268
#	329362
#
# Disc length: 4630
#
# Revision: 1
# Processed by: cddbd v1.5.1PL0 Copyright (c) Steve Scherf et al.
# Submitted via: NeoAudio 9.9.9
# Normalized: r0:DSETVAR1,TDELIM( - )
#
DISCID=8a12141c
DTITLE=Various Artist - Classic Country 1965-1969
DYEAR=1900
DGENRE=Country
TTITLE0=George Jones - Walk Through This World With Me
TTITLE1=Johnny Cash - Jackson (with June Carter)
TTITLE2=The Statler Brothers - Flowers On the Wall
TTITLE3=Roger Miller - King of the Road
TTITLE4=Merle Haggard - Okie from Muskogee
TTITLE5=Kenny Rogers - Ruby, Don't Take Your Love to Town
TTITLE6=Eddy Arnold - Make the World Go Away
TTITLE7=Waylon Jennings - Only Daddy That'll Walk the Line
TTITLE8=Loretta Lynn - Don't Come Home A-Drinkin' (With Lovin' on Your Mind
TTITLE9=Jeannie C Riley - Harper Valley PTA
TTITLE10=Henson Cargill - Skip A Rope
TTITLE11=Merle Haggard - Mama Tried
TTITLE12=Glen Campbell - Wichita Lineman
TTITLE13=Tammy Wynette - Stand By Your Man
TTITLE14=David Houstan - Almost Persuaded
TTITLE15=Buck Owens - Cryin' Time
TTITLE16=Sonny James - Take Good Care of Her
TTITLE17=Marty Robbins - I Walk Alone
TTITLE18=Jim Reeves - Is It Really Over?
TTITLE19=Jack Greene - There Goes My Everything
TTITLE20=Conway Twitty - Next In Line
TTITLE21=Porter Wagoner and Dolly Parton - Just Someone I Used to Know
TTITLE22=Porter Wagoner - Green, Green Grass of Home
TTITLE23=Jim Reeves - Blue Side of Lonesome
TTITLE24=Elvis Presley - Suspicious Minds
TTITLE25=Charley Pride - All I Have to Offer You (Is Me)
TTITLE26=Glen Campbell - Galveston
TTITLE27=Bobby Goldsboro - Honey
EXTD=
EXTT0=
EXTT1=
EXTT2=
EXTT3=
EXTT4=
EXTT5=
EXTT6=
EXTT7=
EXTT8=
EXTT9=
EXTT10=
EXTT11=
EXTT12=
EXTT13=
EXTT14=
EXTT15=
EXTT16=
EXTT17=
EXTT18=
EXTT19=
EXTT20=
EXTT21=
EXTT22=
EXTT23=
EXTT24=
EXTT25=
EXTT26=
EXTT27=
PLAYORDER=
